HIERARCHY
ROOT Hips
{
	OFFSET -14.64140 90.27770 -84.91600
	CHANNELS 6 Xposition Yposition Zposition Zrotation Xrotation Yrotation
	JOINT Spine
	{
		OFFSET 0.00000 13.20850 -1.60436
		CHANNELS 3 Zrotation Xrotation Yrotation
		JOINT Spine1
		{
			OFFSET 0.00000 8.61716 0.00000
			CHANNELS 3 Zrotation Xrotation Yrotation
			JOINT Spine2
			{
				OFFSET 0.00000 8.61717 0.00000
				CHANNELS 3 Zrotation Xrotation Yrotation
				JOINT Spine3
				{
					OFFSET 0.00000 8.61717 0.00000
					CHANNELS 3 Zrotation Xrotation Yrotation
					JOINT Neck
					{
						OFFSET 0.00000 11.07920 1.10792
						CHANNELS 3 Zrotation Xrotation Yrotation
						JOINT Neck1
						{
							OFFSET 0.00000 7.08032 0.00000
							CHANNELS 3 Zrotation Xrotation Yrotation
							JOINT Head
							{
								OFFSET 0.00000 7.08031 0.00000
								CHANNELS 3 Zrotation Xrotation Yrotation
								End site
								{
									OFFSET 0.00000 0.00000 0.00000
								}
							}
						}
					}
					JOINT RightShoulder
					{
						OFFSET -0.01000 7.91373 5.19711
						CHANNELS 3 Zrotation Xrotation Yrotation
						JOINT RightArm
						{
							OFFSET -18.41580 0.00000 0.00000
							CHANNELS 3 Zrotation Xrotation Yrotation
							JOINT RightForeArm
							{
								OFFSET -29.11090 0.00000 0.00000
								CHANNELS 3 Zrotation Xrotation Yrotation
								JOINT RightHand
								{
									OFFSET -24.65040 0.00000 0.00000
									CHANNELS 3 Zrotation Xrotation Yrotation
									JOINT RightHandThumb1
									{
										OFFSET -5.35114 -0.85590 3.97906
										CHANNELS 3 Zrotation Xrotation Yrotation
										JOINT RightHandThumb2
										{
											OFFSET -4.52789 0.00000 0.00000
											CHANNELS 3 Zrotation Xrotation Yrotation
											JOINT RightHandThumb3
											{
												OFFSET -2.46976 0.00000 0.00000
												CHANNELS 3 Zrotation Xrotation Yrotation
												End site
												{
													OFFSET 0.00000 0.00000 0.00000
												}
											}
										}
									}
									JOINT RightHandIndex1
									{
										OFFSET -14.26970 0.00000 2.88139
										CHANNELS 3 Zrotation Xrotation Yrotation
										JOINT RightHandIndex2
										{
											OFFSET -5.48836 0.00000 0.00000
											CHANNELS 3 Zrotation Xrotation Yrotation
											JOINT RightHandIndex3
											{
												OFFSET -3.01859 0.00000 0.00000
												CHANNELS 3 Zrotation Xrotation Yrotation
												End site
												{
													OFFSET 0.00000 0.00000 0.00000
												}
											}
										}
									}
									JOINT RightHandMiddle1
									{
										OFFSET -14.26970 0.00000 -0.09147
										CHANNELS 3 Zrotation Xrotation Yrotation
										JOINT RightHandMiddle2
										{
											OFFSET -6.17441 0.00000 0.00000
											CHANNELS 3 Zrotation Xrotation Yrotation
											JOINT RightHandMiddle3
											{
												OFFSET -3.56743 0.00000 0.00000
												CHANNELS 3 Zrotation Xrotation Yrotation
												End site
												{
													OFFSET 0.00000 0.00000 0.00000
												}
											}
										}
									}
									JOINT RightHandRing1
									{
										OFFSET -12.69180 0.00000 -3.06433
										CHANNELS 3 Zrotation Xrotation Yrotation
										JOINT RightHandRing2
										{
											OFFSET -5.62556 0.00000 0.00000
											CHANNELS 3 Zrotation Xrotation Yrotation
											JOINT RightHandRing3
											{
												OFFSET -3.56744 0.00000 0.00000
												CHANNELS 3 Zrotation Xrotation Yrotation
												End site
												{
													OFFSET 0.00000 0.00000 0.00000
												}
											}
										}
									}
									JOINT RightHandPinky1
									{
										OFFSET -11.11390 0.00000 -6.03719
										CHANNELS 3 Zrotation Xrotation Yrotation
										JOINT RightHandPinky2
										{
											OFFSET -4.52789 0.00000 0.00000
											CHANNELS 3 Zrotation Xrotation Yrotation
											JOINT RightHandPinky3
											{
												OFFSET -2.46976 0.00000 0.00000
												CHANNELS 3 Zrotation Xrotation Yrotation
												End site
												{
													OFFSET 0.00000 0.00000 0.00000
												}
											}
										}
									}
								}
							}
						}
					}
					JOINT LeftShoulder
					{
						OFFSET 0.01000 7.91373 5.19711
						CHANNELS 3 Zrotation Xrotation Yrotation
						JOINT LeftArm
						{
							OFFSET 18.41580 0.00000 0.00000
							CHANNELS 3 Zrotation Xrotation Yrotation
							JOINT LeftForeArm
							{
								OFFSET 29.11090 0.00000 0.00000
								CHANNELS 3 Zrotation Xrotation Yrotation
								JOINT LeftHand
								{
									OFFSET 24.65040 0.00000 0.00000
									CHANNELS 3 Zrotation Xrotation Yrotation
									JOINT LeftHandThumb1
									{
										OFFSET 5.35114 -0.85590 3.97906
										CHANNELS 3 Zrotation Xrotation Yrotation
										JOINT LeftHandThumb2
										{
											OFFSET 4.52789 0.00000 0.00000
											CHANNELS 3 Zrotation Xrotation Yrotation
											JOINT LeftHandThumb3
											{
												OFFSET 2.46977 0.00000 0.00000
												CHANNELS 3 Zrotation Xrotation Yrotation
												End site
												{
													OFFSET 0.00000 0.00000 0.00000
												}
											}
										}
									}
									JOINT LeftHandIndex1
									{
										OFFSET 14.26970 0.00000 2.88139
										CHANNELS 3 Zrotation Xrotation Yrotation
										JOINT LeftHandIndex2
										{
											OFFSET 5.48836 0.00000 0.00000
											CHANNELS 3 Zrotation Xrotation Yrotation
											JOINT LeftHandIndex3
											{
												OFFSET 3.01859 0.00000 0.00000
												CHANNELS 3 Zrotation Xrotation Yrotation
												End site
												{
													OFFSET 0.00000 0.00000 0.00000
												}
											}
										}
									}
									JOINT LeftHandMiddle1
									{
										OFFSET 14.26970 0.00000 -0.09147
										CHANNELS 3 Zrotation Xrotation Yrotation
										JOINT LeftHandMiddle2
										{
											OFFSET 6.17440 0.00000 0.00000
											CHANNELS 3 Zrotation Xrotation Yrotation
											JOINT LeftHandMiddle3
											{
												OFFSET 3.56744 0.00000 0.00000
												CHANNELS 3 Zrotation Xrotation Yrotation
												End site
												{
													OFFSET 0.00000 0.00000 0.00000
												}
											}
										}
									}
									JOINT LeftHandRing1
									{
										OFFSET 12.69180 0.00000 -3.06433
										CHANNELS 3 Zrotation Xrotation Yrotation
										JOINT LeftHandRing2
										{
											OFFSET 5.62556 0.00000 0.00000
											CHANNELS 3 Zrotation Xrotation Yrotation
											JOINT LeftHandRing3
											{
												OFFSET 3.56744 0.00000 0.00000
												CHANNELS 3 Zrotation Xrotation Yrotation
												End site
												{
													OFFSET 0.00000 0.00000 0.00000
												}
											}
										}
									}
									JOINT LeftHandPinky1
									{
										OFFSET 11.11390 0.00000 -6.03719
										CHANNELS 3 Zrotation Xrotation Yrotation
										JOINT LeftHandPinky2
										{
											OFFSET 4.52789 0.00000 0.00000
											CHANNELS 3 Zrotation Xrotation Yrotation
											JOINT LeftHandPinky3
											{
												OFFSET 2.46976 0.00000 0.00000
												CHANNELS 3 Zrotation Xrotation Yrotation
												End site
												{
													OFFSET 0.00000 0.00000 0.00000
												}
											}
										}
									}
								}
							}
						}
					}
					JOINT pCube4
					{
						OFFSET 0.00000 10.91090 1.10792
						CHANNELS 3 Zrotation Xrotation Yrotation
						End site
						{
							OFFSET 0.00000 0.00000 0.00000
						}
					}
				}
			}
		}
	}
	JOINT RightUpLeg
	{
		OFFSET -9.98441 0.00000 0.00000
		CHANNELS 3 Zrotation Xrotation Yrotation
		JOINT RightLeg
		{
			OFFSET 0.00000 -42.11790 0.00000
			CHANNELS 3 Zrotation Xrotation Yrotation
			JOINT RightFoot
			{
				OFFSET 0.00000 -45.00020 -0.00001
				CHANNELS 3 Zrotation Xrotation Yrotation
				JOINT RightForeFoot
				{
					OFFSET 0.00000 -3.74820 0.00000
					CHANNELS 3 Zrotation Xrotation Yrotation
					JOINT RightToeBase
					{
						OFFSET 0.00000 0.06325 14.43120
						CHANNELS 3 Zrotation Xrotation Yrotation
						End site
						{
							OFFSET 0.00000 0.00000 0.00000
						}
					}
				}
			}
		}
	}
	JOINT LeftUpLeg
	{
		OFFSET 9.98441 0.00000 0.00000
		CHANNELS 3 Zrotation Xrotation Yrotation
		JOINT LeftLeg
		{
			OFFSET 0.00000 -42.11800 0.00000
			CHANNELS 3 Zrotation Xrotation Yrotation
			JOINT LeftFoot
			{
				OFFSET 0.00000 -45.00070 0.00000
				CHANNELS 3 Zrotation Xrotation Yrotation
				JOINT LeftForeFoot
				{
					OFFSET 0.00000 -3.74824 0.00000
					CHANNELS 3 Zrotation Xrotation Yrotation
					JOINT LeftToeBase
					{
						OFFSET 0.00000 0.06325 14.43110
						CHANNELS 3 Zrotation Xrotation Yrotation
						End site
						{
							OFFSET 0.00000 0.00000 0.00000
						}
					}
				}
			}
		}
	}
}
MOTION
Frames: 4
Frame Time: 0.050000
-0.003787596606265255 0.03619993666810811 0.027976667934324836 0.028705021888700638 0.030105701342213916 0.03894115386215077 1.2276264794910805 3.562955262383202 -1.441433080807275 -0.6210047363610106 3.7096868621671755 0.34946423895525797 -0.7882566049172758 -1.203974212031875 1.4729736276573457 -0.46244572627824976 -0.8592038914349808 -0.37836759282936644 0.3669570762205014 11.802343146382793 -2.2121856695709474 0.14140630621779524 -1.676961191910475 -6.987068421637722 1.0497302765529661 -17.983264995523015 -0.6008389906209288 -6.726453770288586 2.6224847499088777 -16.174645677687113 75.62766401686793 -23.18593261246149 19.219277737834247 25.356366466242406 -1.9938976231080527 86.74434285181967 11.033955226784212 -0.29389487495962163 -1.4821362158340952 4.51057012915509 -0.16269449136525216 -1.5506441517844896 -0.021869230026389574 0.0335634630450621 -56.22533644629204 -0.03248788207320412 -0.008204421178081114 -56.20126637615375 -38.77653425060501 -0.0011492220417411104 0.017172372144914298 -0.014343788903389863 -0.027544387900617185 0.04527820716321141 0.019976260507503205 -0.005759642021836126 -0.02718457364602782 -36.73804613790957 -0.038471317906589704 0.010824797735924574 0.005357157184848871 0.04597729528771341 0.016860318890047757 0.04011088133515476 0.011761550299746262 0.021819699704483497 -19.739795617150396 -0.04604363621275475 -0.0007606445788822554 0.0300528010599506 0.037744148283953026 -0.016399555356844543 0.018772805531861527 0.013494579471104733 -0.01463160681073222 24.034300340081643 0.024160264634488147 0.01107742251593807 28.862967657883367 -0.033780397109466044 -0.03275138369047368 28.82721722548117 -0.011587165289913501 0.04844580654028449 5.336658173219169 1.5483702452009724 14.553507288524989 -72.87894422544356 -1.600811402803239 -10.072832386336827 11.485417597805412 -10.114404638296223 -73.1432620195645 -9.380432612526302 11.553772639966247 -10.972473104891812 -0.4815812897352139 0.09481849274528892 -8.139436169564082 -0.03456589322319001 -0.038699148477976265 44.584674573991364 0.016539050412706854 0.011506173420274069 44.57524160064135 12.443306266714139 0.026174732888839196 0.010579114733414555 -0.00031832745930046526 -0.031728430012872344 -0.0035770251486509836 -0.03341112698162936 -0.030755304016372203 0.005350540014979408 11.062158618004876 -0.010581532611504277 0.006116257292314442 0.010000159549044384 0.020368576703331913 -0.028951346166118858 0.018212201971827397 0.015007081603269988 -0.03481078132330625 4.763213544762094 0.00863174435928679 -0.012327074232947951 0.01533187273729854 -0.04917331901461385 0.019961638950301185 -0.02711140633653013 -0.010779272818159658 -0.04617378469796523 -5.570263650161511 -0.0015054725423613749 0.012357341653788987 -6.75398393508211 0.029573744107467236 -0.03402900259077856 -6.746103312520054 0.014447906180491289 0.04372951984594213 0.0028794757877509407 -0.01972447260508237 0.027335626115820123 8.041169646167837 3.499188879534416 -19.188790448598173 0.018070969444149227 10.384120458889841 0.043444124551701976 -5.662838708768605 -15.614510973942625 3.1750011339698343 0.017135344574621476 -0.014349926266168062 -0.04004327525383222 0.0077381616255475264 4.732114955449337 0.015264700743884495 12.496320182784048 -8.188936421007273 6.931303318491586 -0.021167026171664473 46.349195545328975 -0.03488627819330851 -4.279156542886866 -14.746508913093548 -3.839041080173976 -0.019421946977911143 -0.024951764712388257 -0.012095119082410365 0.025672329511015314 -10.726789553157271 0.03138624214947391 
-0.009121702190576312 -0.01950195161694876 0.02886160641825668 -0.04429871286565082 0.01242542360253585 -0.03505197258263848 1.6448616865236017 3.6260145607835566 -1.5298103122185842 -0.6346857996680795 3.7484042726593185 0.3696830035773947 -0.765714311841356 -1.1926739234918982 1.7152561040645558 -0.5223870442233075 -0.8487428051297902 -0.26564132024290077 0.4611483684021558 11.986393838088283 -2.291959334486572 0.13929857497825576 -1.48492853538182 -7.221218989974765 1.111885719577186 -17.899290300468575 -0.6535169262903819 -7.691976985782088 2.8000503482651875 -16.296848420814268 75.23250029980365 -23.052976081985964 21.814905957961017 23.043602121021618 -3.429192212426923 89.3338311591627 9.193951579684446 -0.22172760672954492 -0.9492365888489102 4.552473520838246 -0.13856276982863486 -1.6234716411993266 0.021456044741820092 0.02929247766165747 -56.22020161228427 0.027431268745252556 0.026805875903937265 -56.19578508766785 -38.78409798478298 0.03350230655502557 -0.029057935062247388 -0.0021256991519017976 -0.02538720147764445 0.023298558435654766 -0.0004487353445404399 -0.026300584080276513 0.035904820587273255 -36.73792138113118 0.01249366173815993 0.00708757744523975 -0.029007752217904186 0.015060736144535614 -0.034165125205996114 0.020178116631134703 0.006133704483963103 0.027382708304869302 -19.74455057834832 -0.024445580080105583 -0.026368211769034824 0.02187897885167617 0.008579914677871328 0.012294027710685877 0.011128453261155519 0.009803678161315502 -0.006509141838338318 24.045301139945593 -0.04546937937728991 -0.03864413552183633 28.886300059202984 0.039011003162575476 -0.006553005253522031 28.87930262270333 -0.018306941699552146 0.012570757830530096 5.786917205097898 1.642854431616725 14.67916790031121 -71.9236999235157 0.6851439492848412 -9.447281019441569 14.513910987759639 -13.878063604789592 -78.13690548616762 -7.501906002475166 9.159339151872071 -10.596762236012495 -0.4420355939751164 0.06763084622854314 -8.108178828820094 -0.008163364277486306 0.04020924588078395 44.575065614954234 -0.009980531188501018 -0.04621420192318774 44.56619003161333 12.43833167020997 -0.037537520996423476 -0.017528681478585356 0.031145240088710037 -0.014317430353040181 0.039154419373977234 -0.04398244860145563 0.0025453609567836852 -0.011167564943837855 11.069698123780368 0.032049476622889796 0.0496809124719276 0.02914351837601589 0.0025835524756425703 -0.025613182041217313 0.0008138069281468641 0.04271637974142358 0.046165759808660695 4.734309007841314 0.0299720447716295 0.00613688015217882 0.0132040852263536 0.037037870383179634 -0.004436087084051221 -0.007034382810368517 0.0008768593852600556 -0.0067653319885521805 -5.557641633285306 -0.02203835353333049 0.0008077031942541103 -6.70876235134615 0.0025926440361460725 -0.002813586051420409 -6.718271820435071 0.019260946905195336 -0.012967644847185086 -0.008963753020903204 -0.02713976847381826 0.0187455147815688 8.024468527690875 3.446919326469205 -19.21044309690095 0.043967766129600655 10.387675881696808 0.026773290467681468 -5.592283305222279 -15.642471416317946 3.2371435484116464 -0.0035050730307469163 -0.047382579435052224 -0.019473770164091277 -0.007017535518648116 4.696162794579327 -0.008259991678784996 12.478196725041116 -8.25592559196681 6.894542248892727 -0.007123247589683057 46.37882433301734 0.04547628249562955 -4.282844532143587 -14.76957503986122 -3.867946901154757 -0.008142934698925148 -0.013987604518394342 0.012187678874025519 0.00532255349459309 -10.716406346401776 -0.010494270948839118 
0.04609576296981921 0.009413211549833479 -0.030901394785136278 0.02498177477805425 -0.003096932223296115 0.017018396351050808 1.8924876238769002 3.6927202635440945 -1.4645475010210005 -0.74399811926091 3.713785996293021 0.4347289194937914 -0.8826894111418877 -1.1233267051059779 2.032191227236122 -0.5375109756843013 -0.8264223450011857 -0.2603987294340142 0.5119063371549214 12.24430472952319 -2.202991723529762 0.11022058467282692 -1.434562162972653 -7.265714031902262 1.1248969444806545 -17.83915405787356 -0.668170178116123 -8.726961391808905 3.069607418099463 -16.485802658488595 75.01153064473627 -24.95036248099814 25.524495895101605 21.57376888126054 -4.7097200746487005 91.20991365721976 7.811571159793562 -0.23585735975860278 -0.41357559036959113 4.565977851026043 -0.10422593724799505 -1.6152212035301168 0.00011364147771514672 -0.01295642929465503 -56.278858915737175 0.03798111195884314 -0.04096630265893088 -56.22802820691852 -38.78193521131248 -0.0040983502842891475 -0.037315537299170747 0.04847773302833573 0.009663756023564616 -0.029385943110164986 0.006590805269281734 -0.043151247854779744 -0.019132673285967013 -36.6770442151416 0.008172737516129345 0.00433164190212246 0.011194673784601778 -0.016819000016623977 0.013349524824491395 0.0378043052994382 -0.01568240783400203 0.019937089352203854 -19.753964889508264 0.024264045742713725 -0.02981533945053944 0.0021444522632524518 0.010542395117582086 -0.03182335792449834 0.034478476628271776 -0.03031537846271736 0.0015516490565455196 24.032447639170005 0.04259014315915424 0.018730377172921416 28.875097183554285 0.01589915250117985 0.019851495812401757 28.8492751604512 0.04424488309202728 0.022236904691825547 6.229976359858305 1.6976800394963747 14.798838059634612 -71.41830314902913 0.2343058215896974 -9.453447778551753 15.380361283346534 -14.980898052610966 -81.02861023251701 -6.327855917624719 8.139830058958795 -10.586300402733988 -0.47075208899507837 0.048351984444990004 -8.102762945721246 0.010109140870280713 -0.016930484576506446 44.573095975951624 0.025286120451848255 0.04011909916826361 44.53424851201477 12.485040802779011 0.007544976096656452 -0.047437670955587444 0.014329576209891375 -0.0007881526619730515 0.014005956008889509 0.0017170055110300657 -0.02942270714619129 -0.04461357779353416 11.084243947162319 0.028565320527841415 0.004923762425227513 0.01701878212518705 -0.03171272429180682 0.04920393743884155 -0.0309859992278893 0.019788822165931145 -0.0065262453946758996 4.745907938387526 0.04991076018474407 -0.001629471390825205 0.042213650370951865 -0.026771018029393093 -0.04690577153128656 -0.043574973111991475 -0.011715899493014598 -0.03327682671388757 -5.600487665001648 0.03312293386944946 -0.04288505801488164 -6.728331438097766 0.0031069249575595105 0.04653287902361316 -6.738081606023288 -0.0059660937714852485 0.013740913389283923 0.03456038896219337 0.047190658902089004 -0.03212785856882767 7.998504408939518 3.54314900675553 -19.21070344602914 0.04240660388286406 10.367381405144943 -0.011511622303582183 -5.659792383264614 -15.693990196637818 3.1913323887864684 -0.007232388186598736 0.03810491464972509 0.03285999997628385 -0.03382595570347467 4.650731541367707 -0.00012606576518917731 12.494651097737828 -8.24669699494673 6.858548795152425 0.020285738313574633 46.42215321651642 -0.028030646809528513 -4.29233229723738 -14.7911866060372 -3.8021358215427923 0.03258980210146851 0.02189441412291439 -0.00031630105633623874 -0.012352740416227248 -10.699984162735362 0.030321022114305086 
-0.03622928872235178 0.03556791306098965 0.022518582871692113 0.0387780892935063 -0.011866404720453347 0.008098817043993605 2.117905686254649 3.6844607463735537 -1.4897575345869234 -0.7110267583639738 3.72845125624564 0.3975485415067956 -0.8542296390013437 -1.1370348488138027 2.281378136098509 -0.5956783853545843 -0.8510576247019681 -0.19617895385870449 0.5580657100589637 12.547225112342677 -2.153538830049603 0.1583364407451337 -1.3951463892405693 -7.267124217730087 1.0865892650064037 -17.763588002003612 -0.6082960575981058 -9.679193273016168 3.2851271308147303 -16.6816380318522 74.68401125309984 -27.773290686447528 29.013192802355007 20.653449636562126 -5.610556285034365 92.39257538733204 6.679758600891151 -0.165477010974056 0.08674608870527682 4.484978481719112 -0.10631598007302187 -1.5767541938932776 -0.022851113372612784 -0.0008889844539021983 -56.27339477046783 0.035834209859315985 0.03518191537183093 -56.21066758840395 -38.737427132019945 -0.021782217274269985 -0.04807610770274761 0.048786218544764795 0.006991352707946977 3.302599575123353e-05 0.028021431878865397 -0.024552918801776014 -0.01877627640253909 -36.69435695014401 -0.022459538700258946 -0.013555221627950028 -0.022456154023420345 0.007652550177737569 -0.042629958742841145 0.033215287530173235 0.01819215096597919 0.001898378056100145 -19.779137480839175 0.017526961703157894 -0.021527785795094415 0.021782544985383127 0.02713605574916424 -0.04815904492480266 -0.012053247596386334 -0.004027217248745402 0.04845201573304488 24.02705301930567 -0.02687291785189511 0.016073032816511297 28.86204857949224 0.005605847762534358 -0.024116226294832965 28.865645348575192 -0.022393195064550342 -0.019204256296995424 6.640019125276374 1.735094128561894 15.115713327628654 -71.25368893941872 -2.079091387102827 -9.785793981934514 14.641460186499886 -14.278681237620717 -82.81504969189366 -5.502513426277095 7.897250358503436 -11.037291764828066 -0.42440731389386616 0.027460156876131486 -8.123476608833135 -0.04712470839727831 -0.034687811307534656 44.53705897591218 -0.014868041424148394 -0.025958102629080375 44.54722796978235 12.506187412744229 0.017039563814660687 -0.028384198656214516 0.04315875706945404 -0.026455507995281034 -0.0030716816495648036 -0.047944237552639116 -0.0034190343878748594 -0.005376687138400575 11.151739100335975 0.017496651763170192 -0.02828999807218438 -0.04528508293250473 0.04757504916095422 0.013455406869800408 -0.024629318910936136 0.026219474825764512 0.042812521245454274 4.726667478359096 0.038495105299141914 -0.02035932847366599 -0.011497335496099433 -0.011400798510223265 -0.04796499440616166 -0.008830644624974847 -0.03912915363495908 -0.0008485372084768059 -5.570839570753726 -0.007752252715348937 0.017022943859684385 -6.688020605252024 -0.04190362117435744 -0.029274050660444167 -6.690974950411645 0.028448729608262516 -0.01944330278327934 -0.018822311249945267 0.03808189647353789 0.03206019199079604 8.021360545002711 3.471876344121236 -19.20094172500803 -0.010866253356089197 10.440325393227052 0.05908282375434419 -5.604157383397269 -15.612924994219084 3.2039323620853306 0.04945066774807891 -0.029650785877112097 -0.02905008728349885 -0.044356322639833856 4.712710768902636 -0.04146774533541428 12.496045995769073 -8.261577159226285 6.867446575537312 -0.0024702319866953155 46.36516801829301 0.03627399390792064 -4.2976674388099605 -14.779809367725584 -3.875760525603 0.025678509118198776 -0.018005963380275516 0.04248749660166399 -0.02237571483535451 -10.74999402938248 -0.021120810476363938 
